<svg width="18" height="18" viewBox="0 0 18 18" fill="none" xmlns="http://www.w3.org/2000/svg">
<path d="M12.75 6H13.5C14.2956 6 15.0587 6.31607 15.6213 6.87868C16.1839 7.44129 16.5 8.20435 16.5 9C16.5 9.79565 16.1839 10.5587 15.6213 11.1213C15.0587 11.6839 14.2956 12 13.5 12H12.75" stroke="#8B8B8B" stroke-width="1.5" stroke-linecap="round" stroke-linejoin="round"/>
<path d="M2.25 6H12.75V12.75C12.75 13.5456 12.4339 14.3087 11.8713 14.8713C11.3087 15.4339 10.5456 15.75 9.75 15.75H5.25C4.45435 15.75 3.69129 15.4339 3.12868 14.8713C2.56607 14.3087 2.25 13.5456 2.25 12.75V6Z" stroke="#8B8B8B" stroke-width="1.5" stroke-linecap="round" stroke-linejoin="round"/>
<path d="M4.5 1.5V3" stroke="#8B8B8B" stroke-width="1.5" stroke-linecap="round" stroke-linejoin="round"/>
<path d="M7.5 1.5V3" stroke="#8B8B8B" stroke-width="1.5" stroke-linecap="round" stroke-linejoin="round"/>
<path d="M10.5 1.5V3" stroke="#8B8B8B" stroke-width="1.5" stroke-linecap="round" stroke-linejoin="round"/>
</svg>
