<svg width="79" height="49" viewBox="0 0 79 49" fill="none" xmlns="http://www.w3.org/2000/svg">
<path d="M1.60999 40.14C1.60999 40.5 1.69999 40.82 1.87999 41.1C2.06999 41.38 2.29999 41.625 2.56999 41.835C2.83999 42.045 3.20499 42.3 3.66499 42.6C4.16499 42.92 4.56499 43.2 4.86499 43.44C5.16499 43.68 5.41999 43.975 5.62999 44.325C5.83999 44.665 5.94499 45.06 5.94499 45.51C5.94499 46.03 5.80499 46.495 5.52499 46.905C5.24499 47.305 4.85499 47.62 4.35499 47.85C3.86499 48.07 3.31499 48.18 2.70499 48.18C2.25499 48.18 1.78499 48.12 1.29499 48C0.804985 47.87 0.474985 47.73 0.304985 47.58C0.254985 47.54 0.214985 47.505 0.184985 47.475C0.164985 47.435 0.154985 47.375 0.154985 47.295L0.109985 44.91V44.895C0.109985 44.855 0.134985 44.835 0.184985 44.835C0.234985 44.825 0.264985 44.84 0.274985 44.88C0.574985 45.49 0.834985 45.985 1.05499 46.365C1.28499 46.745 1.56999 47.08 1.90999 47.37C2.25999 47.66 2.65499 47.805 3.09499 47.805C3.49499 47.805 3.82499 47.7 4.08499 47.49C4.34499 47.27 4.47499 46.9 4.47499 46.38C4.47499 45.94 4.37499 45.555 4.17499 45.225C3.98499 44.895 3.74999 44.615 3.46999 44.385C3.18999 44.155 2.80499 43.88 2.31499 43.56C1.83499 43.25 1.45999 42.985 1.18999 42.765C0.929985 42.545 0.704985 42.28 0.514985 41.97C0.324985 41.66 0.229985 41.295 0.229985 40.875C0.229985 40.345 0.379985 39.9 0.679985 39.54C0.989985 39.17 1.38499 38.9 1.86499 38.73C2.34499 38.55 2.84999 38.46 3.37999 38.46C3.72999 38.46 4.08499 38.495 4.44499 38.565C4.80499 38.625 5.09499 38.7 5.31499 38.79C5.40499 38.83 5.46499 38.875 5.49499 38.925C5.52499 38.965 5.53999 39.02 5.53999 39.09V41.295C5.53999 41.325 5.51499 41.35 5.46499 41.37C5.41499 41.38 5.38499 41.37 5.37499 41.34L5.25499 41.055C5.00499 40.425 4.70999 39.89 4.36999 39.45C4.03999 39.01 3.57499 38.79 2.97499 38.79C2.57499 38.79 2.24499 38.905 1.98499 39.135C1.73499 39.365 1.60999 39.7 1.60999 40.14Z" fill="#353535"/>
<path d="M17.5647 38.625C17.5847 38.625 17.5947 38.655 17.5947 38.715C17.5947 38.775 17.5847 38.805 17.5647 38.805C17.1647 38.805 16.8497 38.965 16.6197 39.285C16.3897 39.595 16.2747 40.015 16.2747 40.545V48.225C16.2747 48.255 16.2497 48.275 16.1997 48.285C16.1597 48.295 16.1297 48.29 16.1097 48.27L9.07471 40.26V46.095C9.07471 46.625 9.18471 47.045 9.40471 47.355C9.62471 47.665 9.92971 47.82 10.3197 47.82C10.3397 47.82 10.3497 47.85 10.3497 47.91C10.3497 47.97 10.3397 48 10.3197 48C10.0397 48 9.82471 47.995 9.67471 47.985L8.86471 47.97L7.93471 47.985C7.76471 47.995 7.51971 48 7.19971 48C7.16971 48 7.15471 47.97 7.15471 47.91C7.15471 47.85 7.16971 47.82 7.19971 47.82C7.63971 47.82 7.98471 47.665 8.23471 47.355C8.49471 47.045 8.62471 46.625 8.62471 46.095V39.75C8.29471 39.39 8.00971 39.145 7.76971 39.015C7.53971 38.875 7.29971 38.805 7.04971 38.805C7.02971 38.805 7.01971 38.775 7.01971 38.715C7.01971 38.655 7.02971 38.625 7.04971 38.625L7.67971 38.64C7.80971 38.65 7.99971 38.655 8.24971 38.655L9.38971 38.64C9.52971 38.63 9.69971 38.625 9.89971 38.625C9.97971 38.625 10.0397 38.645 10.0797 38.685C10.1197 38.725 10.1897 38.81 10.2897 38.94C10.4597 39.17 10.5797 39.325 10.6497 39.405L15.8397 45.39V40.545C15.8397 40.005 15.7297 39.58 15.5097 39.27C15.2897 38.96 14.9847 38.805 14.5947 38.805C14.5747 38.805 14.5647 38.775 14.5647 38.715C14.5647 38.655 14.5747 38.625 14.5947 38.625L15.2397 38.64C15.5597 38.66 15.8297 38.67 16.0497 38.67C16.2497 38.67 16.5297 38.66 16.8897 38.64L17.5647 38.625Z" fill="#353535"/>
<path d="M23.24 48.18C22.31 48.18 21.48 47.965 20.75 47.535C20.03 47.095 19.47 46.505 19.07 45.765C18.68 45.015 18.485 44.2 18.485 43.32C18.485 42.29 18.745 41.41 19.265 40.68C19.785 39.94 20.45 39.385 21.26 39.015C22.08 38.645 22.915 38.46 23.765 38.46C24.715 38.46 25.55 38.685 26.27 39.135C26.99 39.575 27.54 40.16 27.92 40.89C28.31 41.62 28.505 42.395 28.505 43.215C28.505 44.125 28.265 44.96 27.785 45.72C27.305 46.48 26.66 47.08 25.85 47.52C25.05 47.96 24.18 48.18 23.24 48.18ZM23.735 47.805C24.295 47.805 24.795 47.645 25.235 47.325C25.685 46.995 26.035 46.52 26.285 45.9C26.535 45.27 26.66 44.52 26.66 43.65C26.66 42.73 26.52 41.91 26.24 41.19C25.96 40.46 25.555 39.89 25.025 39.48C24.495 39.07 23.875 38.865 23.165 38.865C22.255 38.865 21.555 39.21 21.065 39.9C20.575 40.58 20.33 41.535 20.33 42.765C20.33 43.735 20.475 44.605 20.765 45.375C21.065 46.135 21.47 46.73 21.98 47.16C22.5 47.59 23.085 47.805 23.735 47.805Z" fill="#353535"/>
<path d="M42.6378 38.625C42.6578 38.625 42.6678 38.655 42.6678 38.715C42.6678 38.775 42.6578 38.805 42.6378 38.805C42.2678 38.805 41.9178 38.965 41.5878 39.285C41.2678 39.595 41.0028 40.025 40.7928 40.575L38.0178 47.985C38.0078 48.025 37.9528 48.045 37.8528 48.045C37.7528 48.045 37.6978 48.025 37.6878 47.985L35.7678 43.92L34.2528 47.985C34.2428 48.025 34.1878 48.045 34.0878 48.045C33.9878 48.045 33.9328 48.025 33.9228 47.985L30.0978 39.87C29.9478 39.55 29.8228 39.32 29.7228 39.18C29.6328 39.04 29.5278 38.945 29.4078 38.895C29.2978 38.835 29.1478 38.805 28.9578 38.805C28.9278 38.805 28.9128 38.775 28.9128 38.715C28.9128 38.655 28.9278 38.625 28.9578 38.625C29.1078 38.625 29.2128 38.63 29.2728 38.64C29.4728 38.66 29.7328 38.67 30.0528 38.67C30.7228 38.67 31.2878 38.66 31.7478 38.64C31.8778 38.63 32.0378 38.625 32.2278 38.625C32.2578 38.625 32.2728 38.655 32.2728 38.715C32.2728 38.775 32.2578 38.805 32.2278 38.805C31.9778 38.805 31.7978 38.83 31.6878 38.88C31.5878 38.93 31.5378 39.02 31.5378 39.15C31.5378 39.32 31.6528 39.65 31.8828 40.14L34.5828 45.87L35.5278 43.395L33.8628 39.87C33.6928 39.51 33.5328 39.245 33.3828 39.075C33.2328 38.895 33.0728 38.805 32.9028 38.805C32.8728 38.805 32.8578 38.775 32.8578 38.715C32.8578 38.655 32.8728 38.625 32.9028 38.625C33.0028 38.625 33.1178 38.635 33.2478 38.655C33.3878 38.665 33.5828 38.67 33.8328 38.67C34.4028 38.67 34.8778 38.66 35.2578 38.64C35.3578 38.63 35.4878 38.625 35.6478 38.625C35.6778 38.625 35.6928 38.655 35.6928 38.715C35.6928 38.775 35.6778 38.805 35.6478 38.805C35.5078 38.805 35.4028 38.825 35.3328 38.865C35.2728 38.895 35.2428 38.955 35.2428 39.045C35.2428 39.215 35.3778 39.58 35.6478 40.14L36.3078 41.535L36.6828 40.53C36.9028 39.96 37.0128 39.53 37.0128 39.24C37.0128 38.95 36.8878 38.805 36.6378 38.805C36.6078 38.805 36.5928 38.775 36.5928 38.715C36.5928 38.655 36.6078 38.625 36.6378 38.625C36.7178 38.625 36.8028 38.635 36.8928 38.655C36.9928 38.665 37.2328 38.67 37.6128 38.67C37.7828 38.67 37.9878 38.66 38.2278 38.64L38.7828 38.625C38.8028 38.625 38.8128 38.655 38.8128 38.715C38.8128 38.775 38.8028 38.805 38.7828 38.805C38.1128 38.805 37.5578 39.395 37.1178 40.575L36.5628 42.06L38.3628 45.855L40.2978 40.68C40.4178 40.36 40.4778 40.07 40.4778 39.81C40.4778 39.5 40.3978 39.255 40.2378 39.075C40.0878 38.895 39.8828 38.805 39.6228 38.805C39.5928 38.805 39.5778 38.775 39.5778 38.715C39.5778 38.655 39.5928 38.625 39.6228 38.625L40.3128 38.64C40.6728 38.66 41.0028 38.67 41.3028 38.67C41.5028 38.67 41.7328 38.66 41.9928 38.64L42.6378 38.625Z" fill="#353535"/>
<path d="M57.0454 47.82C57.0754 47.82 57.0904 47.85 57.0904 47.91C57.0904 47.97 57.0754 48 57.0454 48C56.6954 48 56.4154 47.995 56.2054 47.985L55.0504 47.97L53.7004 47.985C53.5204 47.995 53.2754 48 52.9654 48C52.9354 48 52.9204 47.97 52.9204 47.91C52.9204 47.85 52.9354 47.82 52.9654 47.82C53.3354 47.82 53.6054 47.795 53.7754 47.745C53.9454 47.695 54.0604 47.6 54.1204 47.46C54.1804 47.32 54.2104 47.095 54.2104 46.785V43.335H49.3654V46.785C49.3654 47.085 49.3954 47.31 49.4554 47.46C49.5154 47.6 49.6304 47.695 49.8004 47.745C49.9704 47.795 50.2404 47.82 50.6104 47.82C50.6304 47.82 50.6404 47.85 50.6404 47.91C50.6404 47.97 50.6304 48 50.6104 48C50.2604 48 49.9804 47.995 49.7704 47.985L48.4654 47.97L47.3404 47.985C47.1404 47.995 46.8654 48 46.5154 48C46.4954 48 46.4854 47.97 46.4854 47.91C46.4854 47.85 46.4954 47.82 46.5154 47.82C46.8654 47.82 47.1204 47.795 47.2804 47.745C47.4404 47.695 47.5504 47.6 47.6104 47.46C47.6704 47.31 47.7004 47.085 47.7004 46.785V39.84C47.7004 39.54 47.6704 39.32 47.6104 39.18C47.5504 39.04 47.4404 38.945 47.2804 38.895C47.1304 38.835 46.8854 38.805 46.5454 38.805C46.5154 38.805 46.5004 38.775 46.5004 38.715C46.5004 38.655 46.5154 38.625 46.5454 38.625L47.3554 38.64C47.8154 38.66 48.1854 38.67 48.4654 38.67C48.8454 38.67 49.2854 38.66 49.7854 38.64L50.6104 38.625C50.6304 38.625 50.6404 38.655 50.6404 38.715C50.6404 38.775 50.6304 38.805 50.6104 38.805C50.2504 38.805 49.9854 38.835 49.8154 38.895C49.6454 38.955 49.5254 39.06 49.4554 39.21C49.3954 39.35 49.3654 39.57 49.3654 39.87V42.915H54.2104V39.87C54.2104 39.57 54.1804 39.35 54.1204 39.21C54.0604 39.06 53.9454 38.955 53.7754 38.895C53.6054 38.835 53.3354 38.805 52.9654 38.805C52.9354 38.805 52.9204 38.775 52.9204 38.715C52.9204 38.655 52.9354 38.625 52.9654 38.625L53.7004 38.64C54.2004 38.66 54.6504 38.67 55.0504 38.67C55.3204 38.67 55.7054 38.66 56.2054 38.64L57.0454 38.625C57.0754 38.625 57.0904 38.655 57.0904 38.715C57.0904 38.775 57.0754 38.805 57.0454 38.805C56.7054 38.805 56.4504 38.835 56.2804 38.895C56.1204 38.945 56.0104 39.04 55.9504 39.18C55.9004 39.32 55.8754 39.54 55.8754 39.84V46.785C55.8754 47.085 55.9004 47.31 55.9504 47.46C56.0104 47.6 56.1204 47.695 56.2804 47.745C56.4404 47.795 56.6954 47.82 57.0454 47.82Z" fill="#353535"/>
<path d="M60.9255 46.785C60.9255 47.095 60.9505 47.32 61.0005 47.46C61.0505 47.6 61.1455 47.695 61.2855 47.745C61.4355 47.795 61.6705 47.82 61.9905 47.82C62.0205 47.82 62.0355 47.85 62.0355 47.91C62.0355 47.97 62.0205 48 61.9905 48C61.6605 48 61.4005 47.995 61.2105 47.985L60.0705 47.97L58.9605 47.985C58.7605 47.995 58.4905 48 58.1505 48C58.1305 48 58.1205 47.97 58.1205 47.91C58.1205 47.85 58.1305 47.82 58.1505 47.82C58.4705 47.82 58.7055 47.795 58.8555 47.745C59.0055 47.695 59.1055 47.6 59.1555 47.46C59.2155 47.31 59.2455 47.085 59.2455 46.785V39.84C59.2455 39.54 59.2155 39.32 59.1555 39.18C59.1055 39.04 59.0055 38.945 58.8555 38.895C58.7055 38.835 58.4705 38.805 58.1505 38.805C58.1305 38.805 58.1205 38.775 58.1205 38.715C58.1205 38.655 58.1305 38.625 58.1505 38.625L58.9605 38.64C59.4205 38.66 59.7905 38.67 60.0705 38.67C60.3805 38.67 60.7655 38.66 61.2255 38.64L61.9905 38.625C62.0205 38.625 62.0355 38.655 62.0355 38.715C62.0355 38.775 62.0205 38.805 61.9905 38.805C61.6805 38.805 61.4505 38.835 61.3005 38.895C61.1505 38.955 61.0505 39.06 61.0005 39.21C60.9505 39.35 60.9255 39.57 60.9255 39.87V46.785Z" fill="#353535"/>
<path d="M65.8424 46.725C65.8424 46.985 65.8624 47.175 65.9024 47.295C65.9424 47.405 66.0174 47.48 66.1274 47.52C66.2474 47.56 66.4374 47.58 66.6974 47.58H67.2074C67.9874 47.58 68.6624 47.375 69.2324 46.965C69.8024 46.545 70.1824 45.98 70.3724 45.27C70.3724 45.25 70.3924 45.24 70.4324 45.24C70.4524 45.24 70.4724 45.25 70.4924 45.27C70.5224 45.28 70.5374 45.29 70.5374 45.3C70.4474 46.29 70.4024 47.115 70.4024 47.775C70.4024 47.855 70.3824 47.915 70.3424 47.955C70.3124 47.985 70.2574 48 70.1774 48H63.0974C63.0774 48 63.0674 47.97 63.0674 47.91C63.0674 47.85 63.0774 47.82 63.0974 47.82C63.4174 47.82 63.6474 47.795 63.7874 47.745C63.9374 47.695 64.0374 47.6 64.0874 47.46C64.1474 47.31 64.1774 47.085 64.1774 46.785V39.84C64.1774 39.54 64.1474 39.32 64.0874 39.18C64.0374 39.04 63.9374 38.945 63.7874 38.895C63.6374 38.835 63.4074 38.805 63.0974 38.805C63.0774 38.805 63.0674 38.775 63.0674 38.715C63.0674 38.655 63.0774 38.625 63.0974 38.625L63.8624 38.64C64.3224 38.66 64.7024 38.67 65.0024 38.67C65.3024 38.67 65.6824 38.66 66.1424 38.64L66.9074 38.625C66.9374 38.625 66.9524 38.655 66.9524 38.715C66.9524 38.775 66.9374 38.805 66.9074 38.805C66.5974 38.805 66.3674 38.835 66.2174 38.895C66.0674 38.945 65.9674 39.045 65.9174 39.195C65.8674 39.335 65.8424 39.555 65.8424 39.855V46.725Z" fill="#353535"/>
<path d="M74.0163 46.725C74.0163 46.985 74.0363 47.175 74.0763 47.295C74.1163 47.405 74.1913 47.48 74.3013 47.52C74.4213 47.56 74.6113 47.58 74.8713 47.58H75.3813C76.1613 47.58 76.8363 47.375 77.4063 46.965C77.9763 46.545 78.3563 45.98 78.5463 45.27C78.5463 45.25 78.5663 45.24 78.6063 45.24C78.6263 45.24 78.6463 45.25 78.6663 45.27C78.6963 45.28 78.7113 45.29 78.7113 45.3C78.6213 46.29 78.5763 47.115 78.5763 47.775C78.5763 47.855 78.5563 47.915 78.5163 47.955C78.4863 47.985 78.4313 48 78.3513 48H71.2713C71.2513 48 71.2413 47.97 71.2413 47.91C71.2413 47.85 71.2513 47.82 71.2713 47.82C71.5913 47.82 71.8213 47.795 71.9613 47.745C72.1113 47.695 72.2113 47.6 72.2613 47.46C72.3213 47.31 72.3513 47.085 72.3513 46.785V39.84C72.3513 39.54 72.3213 39.32 72.2613 39.18C72.2113 39.04 72.1113 38.945 71.9613 38.895C71.8113 38.835 71.5813 38.805 71.2713 38.805C71.2513 38.805 71.2413 38.775 71.2413 38.715C71.2413 38.655 71.2513 38.625 71.2713 38.625L72.0363 38.64C72.4963 38.66 72.8763 38.67 73.1763 38.67C73.4763 38.67 73.8563 38.66 74.3163 38.64L75.0813 38.625C75.1113 38.625 75.1263 38.655 75.1263 38.715C75.1263 38.775 75.1113 38.805 75.0813 38.805C74.7713 38.805 74.5413 38.835 74.3913 38.895C74.2413 38.945 74.1413 39.045 74.0913 39.195C74.0413 39.335 74.0163 39.555 74.0163 39.855V46.725Z" fill="#353535"/>
<path d="M20 0H57V23.2778L42.9085 8.59914L38.3334 12.5909L57 32.0352V34H52.0188L26.3448 7.64045L20 14.1546V0Z" fill="#353535"/>
</svg>
