<svg width="18" height="18" viewBox="0 0 18 18" fill="none" xmlns="http://www.w3.org/2000/svg">
<path d="M17.6905 12.1359L16.3326 11.4504L17.3771 11.2043C17.7066 11.127 17.9034 10.8281 17.815 10.5398L17.6543 10.016C17.566 9.72773 17.2245 9.55547 16.895 9.63281L14.0506 10.3008L11.4834 9L14.0466 7.70273L16.891 8.3707C17.2204 8.44805 17.5619 8.27578 17.6503 7.9875L17.811 7.46367C17.8994 7.17539 17.7026 6.87656 17.3731 6.79922L16.3286 6.55312L17.6865 5.86758C17.9838 5.71641 18.0842 5.38594 17.9155 5.12578L17.2928 4.18359C17.12 3.92344 16.7424 3.83555 16.4451 3.9832L15.0871 4.66875L15.3684 3.75469C15.4568 3.46641 15.2599 3.16758 14.9305 3.09023L14.3319 2.94961C14.0024 2.87227 13.6609 3.04453 13.5725 3.33281L12.8092 5.82188L10.2862 7.09453V4.36992L12.4436 2.48203C12.6927 2.26406 12.6927 1.90547 12.4436 1.6875L11.9896 1.29023C11.7406 1.07227 11.3308 1.07227 11.0817 1.29023L10.2862 1.98281V0.5625C10.2862 0.253125 9.99695 0 9.64341 0H8.3578C8.00426 0 7.715 0.253125 7.715 0.5625V1.98281L6.92355 1.29023C6.67446 1.07227 6.26467 1.07227 6.01559 1.29023L5.55759 1.6875C5.30449 1.90547 5.30449 2.26406 5.55759 2.48203L7.715 4.36992V7.09453L5.192 5.82188L4.42867 3.33281C4.34028 3.04453 3.99879 2.87227 3.66936 2.94961L3.07075 3.09023C2.74131 3.16758 2.54445 3.46641 2.63284 3.75469L2.91406 4.66875L1.55614 3.9832C1.25884 3.83203 0.881198 3.92344 0.708445 4.18359L0.085729 5.12227C-0.0870243 5.38242 0.0174312 5.71289 0.314728 5.86406L1.67265 6.54961L0.628094 6.7957C0.29464 6.87305 0.0977816 7.17188 0.186167 7.46367L0.346868 7.9875C0.435253 8.27578 0.776742 8.44805 1.10618 8.3707L3.95058 7.70273L6.51376 9L3.95058 10.2973L1.10618 9.6293C0.776742 9.55195 0.435253 9.72422 0.346868 10.0125L0.186167 10.5363C0.0977816 10.8246 0.29464 11.1234 0.624077 11.2008L1.66863 11.4469L0.31071 12.1359C0.0134137 12.2871 -0.0870243 12.6176 0.0817115 12.8777L0.704427 13.8199C0.87718 14.0801 1.25483 14.168 1.55212 14.0203L2.91005 13.3348L2.62882 14.2488C2.54043 14.5371 2.73729 14.8359 3.06673 14.9133L3.66534 15.0539C3.99478 15.1313 4.33626 14.959 4.42465 14.6707L5.18798 12.1816L7.71098 10.909V13.6336L5.55357 15.5215C5.30047 15.7395 5.30047 16.098 5.55357 16.316L6.00755 16.7133C6.25664 16.9312 6.66643 16.9312 6.91551 16.7133L7.70696 16.0207V17.4375C7.70696 17.7469 7.99622 18 8.34977 18H9.63537C9.98891 18 10.2782 17.7469 10.2782 17.4375V16.0172L11.0696 16.7098C11.3187 16.9277 11.7285 16.9277 11.9776 16.7098L12.4316 16.3125C12.6807 16.0945 12.6807 15.7359 12.4316 15.518L10.2862 13.6301V10.9055L12.8092 12.1781L13.5725 14.6672C13.6609 14.9555 14.0024 15.1277 14.3319 15.0504L14.9305 14.9098C15.2599 14.8324 15.4568 14.5336 15.3684 14.2453L15.0871 13.3313L16.4451 14.0168C16.7424 14.168 17.12 14.0766 17.2928 13.8164L17.9155 12.8742C18.0882 12.6176 17.9878 12.2836 17.6905 12.1359V12.1359Z" fill="#8B8B8B"/>
</svg>
