<svg width="18" height="18" viewBox="0 0 18 18" fill="none" xmlns="http://www.w3.org/2000/svg">
<path d="M9.00044 5.62527C7.14058 5.62527 5.62527 7.14058 5.62527 9.00044C5.62527 10.8603 7.14058 12.3756 9.00044 12.3756C10.8603 12.3756 12.3756 10.8603 12.3756 9.00044C12.3756 7.14058 10.8603 5.62527 9.00044 5.62527ZM17.6634 8.45549L14.3339 6.79252L15.5117 3.26266C15.6699 2.78451 15.2164 2.33097 14.7417 2.4927L11.2119 3.67049L9.54539 0.337516C9.32037 -0.112505 8.6805 -0.112505 8.45549 0.337516L6.79252 3.66697L3.25914 2.48918C2.78099 2.33097 2.32746 2.78451 2.48918 3.25914L3.66697 6.789L0.337516 8.45549C-0.112505 8.6805 -0.112505 9.32037 0.337516 9.54539L3.66697 11.2084L2.48918 14.7417C2.33097 15.2199 2.78451 15.6734 3.25914 15.5117L6.789 14.3339L8.45197 17.6634C8.67698 18.1134 9.31686 18.1134 9.54187 17.6634L11.2048 14.3339L14.7347 15.5117C15.2128 15.6699 15.6664 15.2164 15.5047 14.7417L14.3269 11.2119L17.6563 9.5489C18.1134 9.32037 18.1134 8.6805 17.6634 8.45549V8.45549ZM12.1822 12.1822C10.4278 13.9366 7.57302 13.9366 5.81864 12.1822C4.06426 10.4278 4.06426 7.57302 5.81864 5.81864C7.57302 4.06426 10.4278 4.06426 12.1822 5.81864C13.9366 7.57302 13.9366 10.4278 12.1822 12.1822Z" fill="#8B8B8B"/>
</svg>
