<svg width="18" height="18" viewBox="0 0 18 18" fill="none" xmlns="http://www.w3.org/2000/svg">
<path d="M9 6.7499C8.33079 6.73912 7.67719 6.95243 7.14318 7.3559C6.60917 7.75937 6.22541 8.32983 6.05296 8.97652C5.8805 9.62322 5.92926 10.309 6.19147 10.9248C6.45368 11.5406 6.91428 12.051 7.5 12.3749" stroke="#8B8B8B" stroke-width="1.5" stroke-linecap="round" stroke-linejoin="round"/>
<path d="M9 2.25V3.75" stroke="#8B8B8B" stroke-width="1.5" stroke-linecap="round" stroke-linejoin="round"/>
<path d="M4.9499 13.8L3.8999 14.85" stroke="#8B8B8B" stroke-width="1.5" stroke-linecap="round" stroke-linejoin="round"/>
<path d="M13.5 1.5C13.8978 1.5 14.2794 1.65804 14.5607 1.93934C14.842 2.22064 15 2.60218 15 3V10.875C15.5719 11.2052 16.0189 11.7149 16.2716 12.325C16.5244 12.9352 16.5687 13.6116 16.3978 14.2495C16.2269 14.8874 15.8502 15.4511 15.3263 15.8531C14.8024 16.2552 14.1604 16.4731 13.5 16.4731C12.8396 16.4731 12.1977 16.2552 11.6737 15.8531C11.1498 15.4511 10.7731 14.8874 10.6022 14.2495C10.4313 13.6116 10.4756 12.9352 10.7284 12.325C10.9811 11.7149 11.4281 11.2052 12 10.875V3C12 2.175 12.675 1.5 13.5 1.5Z" stroke="#8B8B8B" stroke-width="1.5" stroke-linecap="round" stroke-linejoin="round"/>
<path d="M3 9.75H1.5" stroke="#8B8B8B" stroke-width="1.5" stroke-linecap="round" stroke-linejoin="round"/>
<path d="M4.9499 5.6999L3.8999 4.6499" stroke="#8B8B8B" stroke-width="1.5" stroke-linecap="round" stroke-linejoin="round"/>
</svg>
