<svg width="35" height="35" viewBox="0 0 35 35" fill="none" xmlns="http://www.w3.org/2000/svg">
<rect x="0.5" y="0.5" width="34" height="34" rx="17" fill="#00ACEE" stroke="#00ACEE"/>
<g clip-path="url(#clip0_212_345)">
<path d="M25.3682 11.8017C24.7187 12.2599 23.9995 12.6103 23.2384 12.8395C22.8299 12.3698 22.287 12.0369 21.6831 11.8858C21.0792 11.7347 20.4435 11.7727 19.8619 11.9947C19.2803 12.2167 18.7809 12.6119 18.4313 13.1269C18.0817 13.642 17.8987 14.252 17.907 14.8744V15.5527C16.715 15.5836 15.5338 15.3193 14.4687 14.7831C13.4036 14.247 12.4876 13.4559 11.8023 12.48C11.8023 12.48 9.08917 18.5847 15.1938 21.2979C13.7969 22.2461 12.1328 22.7216 10.4458 22.6545C16.5504 26.0459 24.0116 22.6545 24.0116 14.8541C24.011 14.6651 23.9929 14.4767 23.9574 14.2911C24.6497 13.6084 25.1382 12.7464 25.3682 11.8017V11.8017Z" stroke="white" stroke-linecap="round" stroke-linejoin="round"/>
</g>
<defs>
<clipPath id="clip0_212_345">
<rect width="16.2791" height="16.2791" fill="white" transform="translate(9.76746 9.76709)"/>
</clipPath>
</defs>
</svg>
