<svg width="35" height="35" viewBox="0 0 35 35" fill="none" xmlns="http://www.w3.org/2000/svg">
<rect x="0.5" y="0.5" width="34" height="34" rx="17" fill="#FF0000" stroke="#FF0000"/>
<path d="M26.7833 13.3502C26.6843 12.9547 26.4827 12.5923 26.1989 12.2997C25.915 12.007 25.559 11.7945 25.1667 11.6835C23.7333 11.3335 18 11.3335 18 11.3335C18 11.3335 12.2667 11.3335 10.8333 11.7168C10.441 11.8278 10.085 12.0404 9.80112 12.333C9.51726 12.6256 9.31566 12.988 9.21666 13.3835C8.95434 14.8381 8.82603 16.3138 8.83333 17.7918C8.82398 19.281 8.9523 20.7679 9.21666 22.2335C9.3258 22.6167 9.53192 22.9653 9.81512 23.2456C10.0983 23.5258 10.449 23.7283 10.8333 23.8335C12.2667 24.2168 18 24.2168 18 24.2168C18 24.2168 23.7333 24.2168 25.1667 23.8335C25.559 23.7225 25.915 23.51 26.1989 23.2173C26.4827 22.9247 26.6843 22.5623 26.7833 22.1668C27.0436 20.7232 27.1719 19.2588 27.1667 17.7918C27.176 16.3026 27.0477 14.8157 26.7833 13.3502V13.3502Z" stroke="white" stroke-linecap="round" stroke-linejoin="round"/>
<path d="M16.125 20.5169L20.9167 17.7919L16.125 15.0669V20.5169Z" stroke="white" stroke-linecap="round" stroke-linejoin="round"/>
</svg>
